<svg width="64" height="64" viewBox="0 0 64 64" xmlns="http://www.w3.org/2000/svg">
  <defs>
    <linearGradient id="pinGradient" x1="12" y1="10" x2="52" y2="54" gradientUnits="userSpaceOnUse">
      <stop offset="0" stop-color="#2ee6a6"/>
      <stop offset="0.5" stop-color="#1aa7ec"/>
      <stop offset="1" stop-color="#0b3c9d"/>
    </linearGradient>
    <linearGradient id="accentGradient" x1="22" y1="12" x2="44" y2="48" gradientUnits="userSpaceOnUse">
      <stop offset="0" stop-color="#ffd200"/>
      <stop offset="1" stop-color="#f7971e"/>
    </linearGradient>
  </defs>
  <path d="M32 6C21.64 6 14 14.03 14 24.3C14 39.31 32 58 32 58C32 58 50 39.31 50 24.3C50 14.03 42.36 6 32 6Z" fill="url(#pinGradient)"/>
  <path d="M32 10C40.45 10 45.86 18.06 42.8 25.89C40.82 30.94 37.16 36.4 31.7 43.28" fill="none" stroke="url(#accentGradient)" stroke-linecap="round" stroke-width="4.5"/>
  <circle cx="32" cy="24.5" r="10.5" fill="#ffffff" opacity="0.96"/>
  <rect x="26.5" y="20.5" width="11" height="11" rx="2.5" fill="#f2f2f2"/>
  <path d="M28 20.5C28 17.22 36 17.22 36 20.5" fill="none" stroke="#b8b8b8" stroke-linecap="round" stroke-width="1.8"/>
  <path d="M29.5 26L31.7 28.2L35 24.2" fill="none" stroke="#f7971e" stroke-linecap="round" stroke-linejoin="round" stroke-width="1.9"/>
</svg>
